<svg width="143" height="32" viewBox="0 0 143 32" fill="none" xmlns="http://www.w3.org/2000/svg">
<path fill-rule="evenodd" clip-rule="evenodd" d="M94.4534 2.7821V22.2043H98.6171V14.6574H101.782C102.809 14.6574 103.757 14.3892 104.627 13.8528C105.497 13.3163 106.191 12.5996 106.709 11.7024C107.236 10.8053 107.5 9.81109 107.5 8.71975C107.5 7.6469 107.245 6.66192 106.736 5.7648C106.228 4.85843 105.538 4.13703 104.668 3.60061C103.808 3.05494 102.846 2.7821 101.782 2.7821H94.4534ZM101.31 10.4955H98.6171V6.33359H101.31C101.68 6.33359 102.018 6.4307 102.323 6.62493C102.628 6.8099 102.873 7.05961 103.058 7.37407C103.244 7.68852 103.336 8.03535 103.336 8.41454C103.336 8.79374 103.244 9.14056 103.058 9.45502C102.873 9.76947 102.628 10.0238 102.323 10.218C102.018 10.403 101.68 10.4955 101.31 10.4955Z" fill="#F5450D"/>
<path d="M72.1736 21.9962C72.8213 22.2367 73.4967 22.3893 74.2 22.454C75.1807 22.5465 76.1107 22.4124 76.9897 22.0517C77.8687 21.691 78.5858 21.1592 79.1409 20.4563C79.6961 19.7534 79.9737 18.9395 79.9737 18.0147C80.0015 17.2193 79.7979 16.5256 79.363 15.9337C78.9374 15.3418 78.373 14.8377 77.6698 14.4215C76.9665 14.0054 76.2171 13.6678 75.4213 13.4088C75.2178 13.3441 74.9541 13.284 74.6302 13.2285C74.3064 13.173 74.0149 13.0851 73.7558 12.9649C73.4967 12.8447 73.3672 12.6504 73.3672 12.3822C73.3672 12.0955 73.4412 11.8782 73.5893 11.7302C73.7373 11.573 73.9362 11.4712 74.1861 11.425C74.4452 11.3695 74.7366 11.3556 75.0605 11.3834C75.301 11.4111 75.5231 11.4805 75.7267 11.5915C75.9395 11.6932 76.1245 11.818 76.2818 11.966C76.4484 12.1048 76.5872 12.2435 76.6982 12.3822L79.9737 10.44C79.3815 9.60762 78.6228 8.96946 77.6975 8.52552C76.7815 8.08159 75.7822 7.85962 74.6996 7.85962C73.7836 7.85962 72.9277 8.04922 72.132 8.42841C71.3455 8.79836 70.707 9.33016 70.2166 10.0238C69.7262 10.7175 69.481 11.5406 69.481 12.4932C69.481 13.3441 69.7216 14.0886 70.2027 14.7268C70.6839 15.3557 71.2992 15.869 72.0487 16.2667C72.8074 16.6551 73.5985 16.9141 74.422 17.0435C74.6533 17.0805 74.9032 17.1314 75.1715 17.1961C75.4398 17.2516 75.6665 17.3488 75.8516 17.4875C76.0459 17.617 76.143 17.8112 76.143 18.0701C76.143 18.3014 76.069 18.4817 75.921 18.6112C75.7822 18.7407 75.5971 18.8332 75.3658 18.8887C75.1437 18.9349 74.9124 18.958 74.6718 18.958C74.311 18.958 74.001 18.8979 73.7419 18.7777C73.4921 18.6574 73.2839 18.5233 73.1174 18.3754C72.9508 18.2181 72.8213 18.0886 72.7288 17.9869L69.2312 19.4852C69.5273 20.0864 69.9298 20.595 70.4387 21.0112C70.9476 21.4274 71.5259 21.7557 72.1736 21.9962Z" fill="#F5450D"/>
<path fill-rule="evenodd" clip-rule="evenodd" d="M46.9085 22.565C45.6316 22.565 44.4657 22.2367 43.4109 21.58C42.3653 20.9234 41.528 20.0401 40.8988 18.9303C40.2788 17.8204 39.9689 16.595 39.9689 15.2539C39.9689 14.2458 40.1493 13.3025 40.5102 12.4238C40.871 11.536 41.366 10.7591 41.9952 10.0932C42.6337 9.41802 43.3739 8.89085 44.2159 8.51165C45.0579 8.13246 45.9554 7.94286 46.9085 7.94286C48.0188 7.94286 49.032 8.18795 49.948 8.67813C50.8733 9.15906 51.6505 9.81571 52.2797 10.6481C52.9182 11.4712 53.3715 12.4007 53.6399 13.4366C53.7511 13.8659 53.821 14.3007 53.8495 14.7411C53.8857 13.8761 54.0638 13.0621 54.3839 12.299C54.7448 11.4389 55.2491 10.6851 55.8968 10.0377C56.5537 9.38103 57.3078 8.86772 58.1591 8.49778C59.0196 8.12783 59.9402 7.94286 60.921 7.94286C61.7168 7.94286 62.4385 8.10934 63.0862 8.44229C63.7431 8.76599 64.3261 9.17293 64.835 9.66311L64.6407 8.3313H68.8044V22.2043H64.6268L64.4325 20.9557C64.0901 21.4367 63.6552 21.8251 63.1278 22.1211C62.6097 22.417 62.0036 22.565 61.3097 22.565C60.2733 22.565 59.3018 22.3708 58.395 21.9823C57.4975 21.5939 56.7064 21.0575 56.0217 20.3731C55.337 19.6794 54.8003 18.884 54.4117 17.9869C54.0905 17.2196 53.9053 16.4059 53.856 15.5459C53.8388 15.9074 53.7945 16.2725 53.7232 16.6412H44.4657C44.5953 16.9649 44.7664 17.2609 44.9793 17.5291C45.2013 17.7881 45.4697 17.9962 45.7843 18.1534C46.1081 18.3106 46.4828 18.3938 46.9085 18.4031C47.3156 18.4123 47.6903 18.3245 48.0327 18.1395C48.3843 17.9545 48.6896 17.7048 48.9487 17.3904L53.1957 18.3754C52.6313 19.6054 51.7893 20.6135 50.6697 21.3997C49.5501 22.1766 48.2964 22.565 46.9085 22.565ZM44.3131 13.5892H49.5178C49.3882 13.1915 49.1939 12.84 48.9348 12.5348C48.6758 12.2296 48.3704 11.9892 48.0188 11.8134C47.6765 11.6377 47.3063 11.5498 46.9085 11.5498C46.5199 11.5498 46.1497 11.6377 45.7981 11.8134C45.4558 11.9892 45.1551 12.2296 44.896 12.5348C44.6462 12.84 44.4519 13.1915 44.3131 13.5892ZM61.1986 18.5696C61.7723 18.5696 62.2951 18.4216 62.767 18.1256C63.2389 17.8297 63.6136 17.432 63.8912 16.9326C64.1688 16.4331 64.3076 15.8782 64.3076 15.2678C64.3076 14.6574 64.1688 14.1025 63.8912 13.603C63.6136 13.1036 63.2389 12.7059 62.767 12.41C62.2951 12.114 61.7723 11.966 61.1986 11.966C60.6249 11.966 60.1022 12.114 59.6303 12.41C59.1676 12.7059 58.7975 13.1036 58.5199 13.603C58.2516 14.1025 58.1174 14.6574 58.1174 15.2678C58.1174 15.8782 58.2562 16.4331 58.5338 16.9326C58.8114 17.432 59.1815 17.8297 59.6441 18.1256C60.116 18.4216 60.6342 18.5696 61.1986 18.5696Z" fill="#F5450D"/>
<path d="M89.6128 8.3313H94.0541L86.4483 29.1408H82.0348L84.533 22.2043L79.5365 8.3313H84.0889L86.6149 16.5164L89.6128 8.3313Z" fill="#F5450D"/>
<path fill-rule="evenodd" clip-rule="evenodd" d="M114.269 21.554C115.387 22.0554 116.581 22.306 117.851 22.306C119.13 22.306 120.328 22.0554 121.446 21.554C122.564 21.0437 123.548 20.3409 124.398 19.4456C125.248 18.5503 125.91 17.5163 126.384 16.3435C126.867 15.1617 127.108 13.8993 127.108 12.5564C127.108 11.2135 126.867 9.95561 126.384 8.78279C125.91 7.60101 125.248 6.56249 124.398 5.6672C123.548 4.77192 122.564 4.0736 121.446 3.57224C120.328 3.06193 119.13 2.80677 117.851 2.80677C116.581 2.80677 115.387 3.06193 114.269 3.57224C113.151 4.0736 112.167 4.77192 111.317 5.6672C110.468 6.56249 109.801 7.60101 109.318 8.78279C108.835 9.95561 108.594 11.2135 108.594 12.5564C108.594 13.8993 108.835 15.1617 109.318 16.3435C109.801 17.5163 110.468 18.5503 111.317 19.4456C112.167 20.3409 113.151 21.0437 114.269 21.554ZM119.863 17.8341C119.237 18.1295 118.566 18.2773 117.851 18.2773C117.135 18.2773 116.46 18.1295 115.825 17.8341C115.199 17.5297 114.644 17.1179 114.161 16.5986C113.679 16.0704 113.298 15.4616 113.021 14.7722C112.753 14.0829 112.619 13.3443 112.619 12.5564C112.619 11.7686 112.753 11.0299 113.021 10.3406C113.298 9.65121 113.679 9.0469 114.161 8.52763C114.644 7.99942 115.199 7.58759 115.825 7.29214C116.46 6.98775 117.135 6.83555 117.851 6.83555C118.566 6.83555 119.237 6.98775 119.863 7.29214C120.498 7.58759 121.057 7.99942 121.54 8.52763C122.023 9.0469 122.399 9.65121 122.667 10.3406C122.945 11.0299 123.083 11.7686 123.083 12.5564C123.083 13.3443 122.945 14.0829 122.667 14.7722C122.399 15.4616 122.023 16.0704 121.54 16.5986C121.057 17.1179 120.498 17.5297 119.863 17.8341Z" fill="#F5450D"/>
<path d="M132.274 21.8092C133.24 22.1404 134.251 22.306 135.306 22.306C136.585 22.306 137.766 22.0598 138.848 21.5674C139.93 21.075 140.798 20.3901 141.451 19.5128C142.113 18.6264 142.444 17.5969 142.444 16.424C142.444 15.2691 142.117 14.2888 141.464 13.483C140.811 12.6773 139.944 12.0327 138.861 11.5492C137.779 11.0658 136.594 10.73 135.306 10.542C134.743 10.4614 134.224 10.3719 133.75 10.2734C133.285 10.175 132.909 10.0093 132.623 9.77655C132.337 9.53483 132.194 9.17224 132.194 8.68878C132.194 8.33962 132.346 8.02627 132.65 7.74874C132.954 7.4712 133.343 7.25185 133.817 7.0907C134.291 6.92955 134.787 6.85345 135.306 6.86241C135.888 6.86241 136.415 6.9385 136.889 7.0907C137.363 7.2429 137.752 7.43986 138.056 7.68159C138.37 7.91436 138.571 8.16057 138.66 8.4202L142.444 7.05042C142.131 6.16408 141.612 5.40309 140.887 4.76744C140.163 4.13179 139.313 3.64834 138.338 3.31709C137.372 2.97688 136.362 2.80677 135.306 2.80677C134.045 2.80677 132.869 3.05298 131.778 3.54538C130.695 4.03779 129.823 4.72716 129.162 5.61349C128.5 6.49086 128.169 7.51596 128.169 8.68878C128.169 9.91532 128.477 10.927 129.094 11.7238C129.721 12.5206 130.57 13.1473 131.644 13.6039C132.726 14.0515 133.947 14.3738 135.306 14.5708C135.807 14.6424 136.295 14.7543 136.769 14.9065C137.252 15.0498 137.645 15.2467 137.949 15.4974C138.262 15.7391 138.419 16.048 138.419 16.424C138.419 16.7911 138.271 17.1134 137.976 17.3909C137.681 17.6685 137.296 17.8878 136.822 18.049C136.348 18.2012 135.843 18.2773 135.306 18.2773C134.725 18.2773 134.197 18.2012 133.723 18.049C133.249 17.8878 132.855 17.6864 132.542 17.4447C132.238 17.2029 132.042 16.9522 131.952 16.6926L128.169 18.0893C128.491 18.9666 129.014 19.7231 129.738 20.3588C130.463 20.9855 131.308 21.469 132.274 21.8092Z" fill="#F5450D"/>
<path d="M20.5704 16C20.5704 18.4944 18.5282 20.5165 16.0091 20.5165C13.49 20.5165 11.4479 18.4944 11.4479 16C11.4479 13.5056 13.49 11.4835 16.0091 11.4835C18.5282 11.4835 20.5704 13.5056 20.5704 16Z" fill="#F5450D"/>
<path fill-rule="evenodd" clip-rule="evenodd" d="M16 0L32 16L31.9822 16.0178L32 16.0356L24.313 23.7226L24.2952 23.7048L16 32L7.7139 23.7139L7.6961 23.7317L0 16.0356L0.017801 16.0178L0 16L16 0ZM9.84932 21.5785L16 27.7291L22.1597 21.5693C23.5059 20.0994 24.3267 18.145 24.3267 16C24.3267 13.8543 23.5054 11.8994 22.1585 10.4293L21.6432 9.91404C20.1614 8.55634 18.1826 7.72714 16.0091 7.72714C11.4154 7.72714 7.69153 11.431 7.69153 16C7.69153 18.145 8.5123 20.0994 9.85851 21.5693L9.84932 21.5785Z" fill="#F5450D"/>
</svg>
